<svg width="70" height="46" viewBox="0 0 70 46" fill="none" xmlns="http://www.w3.org/2000/svg">
<path d="M59.0823 37.9961L59.0793 38.0049L59.0823 37.997L68.9768 41.9482L68.9729 41.9658H68.9553C68.9437 41.9657 68.9261 41.9651 68.9036 41.9648C68.8581 41.9643 68.791 41.9637 68.7043 41.9629C68.5305 41.9611 68.2776 41.9587 67.9622 41.956C67.3312 41.9507 66.4492 41.9447 65.4456 41.9404C63.4381 41.9319 60.9434 41.9316 58.9954 41.9658C53.1982 42.0674 45.9912 42.8537 40.2336 43.6142C37.3551 43.9944 34.8389 44.3676 33.0422 44.6465C32.1442 44.7858 31.4257 44.9016 30.9319 44.9824C30.685 45.0228 30.4935 45.0546 30.3645 45.0761C30.3001 45.0869 30.2509 45.095 30.218 45.1006C30.2016 45.1033 30.1892 45.106 30.1809 45.1074C30.1768 45.1081 30.1732 45.108 30.1711 45.1084L30.1692 45.1093H27.5608L27.5588 45.1084C27.5576 45.1081 27.5553 45.1079 27.553 45.1074C27.5479 45.1062 27.5402 45.1047 27.5305 45.1025C27.5105 45.098 27.4808 45.0908 27.4417 45.082C27.3631 45.0643 27.2471 45.0381 27.0969 45.0049C26.7966 44.9384 26.3599 44.8436 25.8147 44.7275C24.7241 44.4954 23.1983 44.1809 21.4602 43.8515C17.9839 43.1928 13.6558 42.4746 10.2483 42.2363C8.39162 42.1065 6.00793 42.0389 4.08813 42.0039C3.12817 41.9863 2.28385 41.9767 1.67993 41.9716C1.37822 41.9691 1.13642 41.9676 0.969971 41.9668C0.886823 41.9664 0.822113 41.9659 0.778564 41.9658H0.712158L0.709229 41.9482L10.4729 38.1699L10.4768 38.1689L10.4758 38.1787L10.4768 38.1699H10.4875C10.4951 38.1701 10.5067 38.1703 10.5217 38.1709C10.552 38.172 10.5976 38.1738 10.6575 38.1767C10.7772 38.1827 10.9556 38.1928 11.1897 38.2109C11.6579 38.247 12.3493 38.3138 13.2424 38.4355C15.0287 38.679 17.6219 39.1435 20.8499 40.0263C21.3177 40.1543 22.9971 40.7019 24.5588 41.2177C25.3398 41.4757 26.0922 41.7256 26.6487 41.9111C26.9268 42.0038 27.1558 42.0813 27.3157 42.1347C27.3956 42.1615 27.4587 42.182 27.5012 42.1963C27.5222 42.2033 27.5382 42.2092 27.5491 42.2129C27.5545 42.2147 27.559 42.2158 27.5618 42.2168H27.5657C27.569 42.2158 27.5738 42.2138 27.5803 42.2119C27.5934 42.2081 27.6127 42.2026 27.6379 42.1953C27.6887 42.1806 27.7635 42.1593 27.8586 42.1318C28.049 42.0767 28.322 41.9976 28.6526 41.9023C29.3138 41.7117 30.2053 41.4554 31.1272 41.1933C32.9703 40.6694 34.9352 40.1219 35.4192 40.0263C40.7411 38.9765 46.6562 38.4687 51.2405 38.2236C53.5327 38.1011 55.4926 38.0438 56.8792 38.0175C57.5724 38.0044 58.1226 37.9992 58.4993 37.997C58.6872 37.9959 58.832 37.9961 58.9299 37.9961H59.0823Z" fill="#2C2CA9" stroke="black" stroke-width="0.0183049"/>
<path d="M30.4805 1.96692L32.9531 2.38977L34.0381 1.58118C34.6688 1.79186 35.2879 2.04438 36.1064 2.36926C36.6213 2.57363 37.0889 2.78286 37.5244 2.99622L37.8105 4.5177L39.916 5.88293L41.4453 5.5177C41.994 5.93087 42.5749 6.37392 43.2314 6.85461C43.5295 7.07284 43.8145 7.28601 44.0889 7.49426L44.2236 9.01282L46.1855 10.5763L47.5645 10.3868C48.4049 11.1539 49.2207 11.9465 50.1299 12.838L50.0967 14.3224L51.874 16.0929L53.3877 16.0538C54.2607 16.9323 55.0447 17.7462 55.7959 18.5548L55.6514 19.7169L57.2393 21.6593L58.6396 21.7657C59.2464 22.4839 59.8755 23.2499 60.5586 24.0919L60.3027 25.6339L61.8105 27.6388L63.4355 27.8282C64.2476 28.9367 65.0567 30.0798 65.8076 31.1573L65.4775 32.798L66.915 34.8536L68.4961 35.0939C69.0856 35.9759 69.445 36.5229 69.4512 36.5323H59.1201C59.0799 36.4662 50.4685 22.2888 48.4434 19.7111C46.6394 17.4151 45.4239 16.2498 43.3008 14.2452C41.2369 12.2967 39.2763 10.5632 37.6045 9.79504C36.3247 9.20707 34.4843 8.62338 33.3965 9.35657C31.8399 10.4058 31.6782 11.9282 31.4707 13.6808C31.1725 16.1996 31.4362 17.6494 31.7012 20.172C32.3941 26.7687 36.4964 36.448 36.5322 36.5323L27.8691 39.8429L18.2578 36.5323C18.2547 36.5056 18.1144 35.287 17.9697 33.5402L19.3135 32.3165L19.1787 29.8107L17.6875 28.7198C17.6463 27.2964 17.6505 25.8719 17.7393 24.6339C17.7487 24.5017 17.7582 24.3712 17.7676 24.2423L19.0195 23.2648L19.2646 20.7667L18.2344 19.5734C18.4328 18.2447 18.7079 16.9599 19.1338 15.5118L20.5742 14.838L21.3701 12.4581L20.6465 11.0909C21.1 9.8829 21.5441 8.83216 22.1201 7.70227L23.5146 7.4386L24.8789 5.33215L24.5029 3.76477C25.4681 2.52546 26.6174 1.59775 28.2422 1.12415C28.7775 0.968119 29.2615 0.886512 29.7354 0.859497L30.4805 1.96692Z" fill="black"/>
<path d="M20.5649 8.82446C20.2832 9.46415 20.0237 10.1086 19.7642 10.8L19.6333 11.1497L19.8081 11.4807L20.3638 12.5315L19.7935 14.2356L18.6763 14.761L18.3374 14.9202L18.2319 15.2795C17.8459 16.5925 17.578 17.7779 17.3804 18.9788C15.4392 21.5857 14.5811 23.5138 13.2944 26.7405C11.8446 30.3765 10.3946 36.2612 10.3833 36.3069H0.712402C0.718109 36.2896 1.11938 35.0828 1.59033 33.7395L3.19189 33.2131L4.09326 30.8713L3.23193 29.3635C3.75274 28.031 4.22857 26.8654 4.79346 25.6682L6.37842 25.3713L7.58057 23.1692L6.95947 21.6428C7.68513 20.4077 8.27291 19.4064 8.9292 18.4426H10.6636L12.2515 16.5002L11.9116 14.8333C12.9564 13.7295 13.8662 12.8357 14.8608 12.0461L16.4702 12.5774L18.5874 11.2307L18.7739 9.65063C18.7847 9.64548 18.7954 9.64017 18.8062 9.63501C19.4443 9.32947 20.0177 9.05975 20.5649 8.82446ZM34.2007 9.87915C34.8316 10.2972 35.3978 10.6988 35.9302 11.1311L35.7339 12.7932L37.4771 14.5979L38.9468 14.4749C39.7423 15.5897 40.3674 16.6336 40.8628 17.7444L39.9761 18.9485L40.5991 21.3792L42.1089 22.0803C42.3571 23.5703 42.5336 24.7551 42.5923 25.9456L41.2329 26.8645L41.0044 29.3635L42.2378 30.5735C41.7343 33.1804 40.7055 36.2749 40.6948 36.3069H37.2368L37.1948 36.2083V36.2073C37.1944 36.2063 37.1928 36.2045 37.1919 36.2024C37.1901 36.1981 37.1878 36.1907 37.1841 36.1819C37.1766 36.1641 37.1646 36.1371 37.1499 36.1018C37.1201 36.0305 37.0764 35.9239 37.02 35.7864C36.9071 35.5108 36.7439 35.1083 36.5464 34.6047C36.1555 33.6079 35.6286 32.2144 35.0796 30.6194C35.1979 30.1053 35.3041 29.5956 35.3853 29.1086C35.7762 26.7628 35.7292 24.5345 35.2554 22.1653C34.8821 20.2994 33.9687 18.6942 32.9116 17.4358C32.6441 17.1173 32.3749 16.8077 32.0854 16.5042C32.0496 15.6715 32.0689 14.826 32.1929 13.7786C32.4076 11.965 32.5616 10.8523 33.7573 10.0461C33.8725 9.96851 34.0201 9.91227 34.2007 9.87915Z" fill="black"/>
</svg>
