<svg width="70" height="45" viewBox="0 0 70 45" fill="none" xmlns="http://www.w3.org/2000/svg">
<path d="M58.3767 37.1367L58.3738 37.1455L58.3767 37.1377L68.2712 41.0889L68.2673 41.1064H68.2498C68.2381 41.1063 68.2206 41.1057 68.198 41.1055C68.1525 41.105 68.0855 41.1044 67.9988 41.1035C67.8249 41.1018 67.572 41.0993 67.2566 41.0967C66.6256 41.0913 65.7436 41.0853 64.74 41.0811C62.7325 41.0725 60.2378 41.0723 58.2898 41.1064C52.4927 41.2081 45.2856 41.9944 39.5281 42.7549C36.6496 43.1351 34.1333 43.5083 32.3367 43.7871C31.4386 43.9265 30.7201 44.0423 30.2263 44.123C29.9794 44.1634 29.788 44.1952 29.6589 44.2168C29.5945 44.2276 29.5454 44.2356 29.5125 44.2412C29.496 44.244 29.4837 44.2466 29.4753 44.248C29.4712 44.2488 29.4677 44.2487 29.4656 44.249L29.4636 44.25H26.8552L26.8533 44.249C26.852 44.2487 26.8497 44.2486 26.8474 44.248C26.8423 44.2469 26.8347 44.2454 26.825 44.2432C26.8049 44.2386 26.7752 44.2315 26.7361 44.2227C26.6576 44.205 26.5415 44.1787 26.3914 44.1455C26.0911 44.0791 25.6543 43.9842 25.1091 43.8682C24.0185 43.636 22.4928 43.3216 20.7546 42.9922C17.2784 42.3334 12.9503 41.6152 9.54272 41.377C7.68606 41.2471 5.30237 41.1796 3.38257 41.1445C2.4226 41.127 1.57828 41.1173 0.974365 41.1123C0.672658 41.1098 0.430854 41.1082 0.264404 41.1074C0.181256 41.107 0.116547 41.1066 0.072998 41.1064H0.0065918L0.00366211 41.0889L9.76733 37.3105L9.77124 37.3096L9.77026 37.3193L9.77124 37.3105H9.78198C9.78956 37.3108 9.80117 37.311 9.81616 37.3115C9.84646 37.3126 9.89203 37.3144 9.9519 37.3174C10.0717 37.3233 10.25 37.3335 10.4841 37.3516C10.9523 37.3877 11.6437 37.4544 12.5369 37.5762C14.3232 37.8196 16.9164 38.2842 20.1443 39.167C20.6121 39.2949 22.2915 39.8425 23.8533 40.3584C24.6343 40.6164 25.3866 40.8663 25.9431 41.0518C26.2212 41.1445 26.4503 41.222 26.6101 41.2754C26.6901 41.3021 26.7531 41.3227 26.7957 41.3369C26.8167 41.3439 26.8326 41.3499 26.8435 41.3535C26.849 41.3553 26.8534 41.3565 26.8562 41.3574H26.8601C26.8634 41.3565 26.8682 41.3544 26.8748 41.3525C26.8878 41.3488 26.9071 41.3433 26.9324 41.3359C26.9831 41.3212 27.0579 41.3 27.1531 41.2725C27.3434 41.2174 27.6164 41.1383 27.947 41.043C28.6082 40.8524 29.4998 40.596 30.4216 40.334C32.2647 39.8101 34.2296 39.2625 34.7136 39.167C40.0355 38.1172 45.9506 37.6093 50.5349 37.3643C52.8271 37.2417 54.787 37.1845 56.1736 37.1582C56.8668 37.1451 57.417 37.1399 57.7937 37.1377C57.9817 37.1366 58.1265 37.1367 58.2244 37.1367H58.3767Z" fill="#A7A7A7" stroke="white" stroke-width="0.0183049"/>
<path d="M29.775 1.10742L32.2477 1.53027L33.3326 0.72168C33.9634 0.932362 34.5825 1.18489 35.401 1.50977C35.9159 1.71413 36.3834 1.92336 36.819 2.13672L37.1051 3.6582L39.2106 5.02344L40.7399 4.6582C41.2885 5.07137 41.8695 5.51442 42.526 5.99512C42.8241 6.21334 43.1091 6.42651 43.3834 6.63477L43.5182 8.15332L45.4801 9.7168L46.859 9.52734C47.6994 10.2944 48.5153 11.087 49.4244 11.9785L49.3912 13.4629L51.1686 15.2334L52.6823 15.1943C53.5552 16.0728 54.3393 16.8867 55.0905 17.6953L54.9459 18.8574L56.5338 20.7998L57.9342 20.9062C58.541 21.6244 59.1701 22.3904 59.8531 23.2324L59.5973 24.7744L61.1051 26.7793L62.7301 26.9688C63.5422 28.0772 64.3513 29.2203 65.1022 30.2979L64.7721 31.9385L66.2096 33.9941L67.7906 34.2344C68.3802 35.1164 68.7395 35.6634 68.7457 35.6729H58.4147C58.3745 35.6067 49.763 21.4293 47.7379 18.8516C45.9339 16.5556 44.7185 15.3903 42.5953 13.3857C40.5315 11.4372 38.5709 9.70368 36.899 8.93555C35.6193 8.34757 33.7788 7.76389 32.691 8.49707C31.1345 9.5463 30.9728 11.0687 30.7653 12.8213C30.467 15.3401 30.7308 16.7899 30.9957 19.3125C31.6887 25.9092 35.791 35.5885 35.8268 35.6729L27.1637 38.9834L17.5524 35.6729C17.5492 35.6461 17.409 34.4275 17.2643 32.6807L18.608 31.457L18.4733 28.9512L16.9821 27.8604C16.9409 26.4369 16.9451 25.0124 17.0338 23.7744C17.0433 23.6422 17.0527 23.5117 17.0621 23.3828L18.3141 22.4053L18.5592 19.9072L17.5289 18.7139C17.7274 17.3852 18.0024 16.1004 18.4283 14.6523L19.8688 13.9785L20.6647 11.5986L19.941 10.2314C20.3946 9.0234 20.8386 7.97266 21.4147 6.84277L22.8092 6.5791L24.1735 4.47266L23.7975 2.90527C24.7626 1.66596 25.912 0.73825 27.5367 0.264648C28.0721 0.108622 28.5561 0.0270146 29.0299 0L29.775 1.10742Z" fill="white"/>
<path d="M19.8594 7.96484C19.5776 8.60453 19.3182 9.24898 19.0586 9.94043L18.9277 10.29L19.1025 10.6211L19.6582 11.6719L19.0879 13.376L17.9707 13.9014L17.6318 14.0605L17.5264 14.4199C17.1403 15.7329 16.8724 16.9183 16.6748 18.1191C14.7337 20.7261 13.8755 22.6541 12.5889 25.8809C11.139 29.5169 9.689 35.4015 9.67773 35.4473H0.00683594C0.0125426 35.43 0.413815 34.2232 0.884766 32.8799L2.48633 32.3535L3.3877 30.0117L2.52637 28.5039C3.04717 27.1714 3.523 26.0058 4.08789 24.8086L5.67285 24.5117L6.875 22.3096L6.25391 20.7832C6.97956 19.5481 7.56735 18.5468 8.22363 17.583H9.95801L11.5459 15.6406L11.2061 13.9736C12.2509 12.8699 13.1606 11.9761 14.1553 11.1865L15.7646 11.7178L17.8818 10.3711L18.0684 8.79102C18.0791 8.78586 18.0898 8.78055 18.1006 8.77539C18.7387 8.46985 19.3122 8.20013 19.8594 7.96484ZM33.4951 9.01953C34.1261 9.43753 34.6922 9.83918 35.2246 10.2715L35.0283 11.9336L36.7715 13.7383L38.2412 13.6152C39.0368 14.7301 39.6618 15.7739 40.1572 16.8848L39.2705 18.0889L39.8936 20.5195L41.4033 21.2207C41.6515 22.7107 41.8281 23.8955 41.8867 25.0859L40.5273 26.0049L40.2988 28.5039L41.5322 29.7139C41.0288 32.3207 39.9999 35.4153 39.9893 35.4473H36.5312L36.4893 35.3486V35.3477C36.4888 35.3467 36.4872 35.3448 36.4863 35.3428C36.4845 35.3385 36.4822 35.331 36.4785 35.3223C36.471 35.3044 36.4591 35.2775 36.4443 35.2422C36.4146 35.1709 36.3708 35.0643 36.3145 34.9268C36.2015 34.6512 36.0383 34.2487 35.8408 33.7451C35.4499 32.7482 34.9231 31.3548 34.374 29.7598C34.4924 29.2457 34.5985 28.736 34.6797 28.249C35.0706 25.9032 35.0237 23.6749 34.5498 21.3057C34.1766 19.4398 33.2631 17.8346 32.2061 16.5762C31.9385 16.2577 31.6694 15.9481 31.3799 15.6445C31.344 14.8119 31.3633 13.9664 31.4873 12.9189C31.7021 11.1054 31.8561 9.99271 33.0518 9.18652C33.167 9.10889 33.3145 9.05265 33.4951 9.01953Z" fill="white"/>
</svg>
